<?xml version="1.0" encoding="UTF-8" standalone="no"?>
<!-- Generator: Adobe Illustrator 21.1.0, SVG Export Plug-In . SVG Version: 6.00 Build 0)  -->

<svg
   xmlns:dc="http://purl.org/dc/elements/1.1/"
   xmlns:cc="http://creativecommons.org/ns#"
   xmlns:rdf="http://www.w3.org/1999/02/22-rdf-syntax-ns#"
   xmlns:svg="http://www.w3.org/2000/svg"
   xmlns="http://www.w3.org/2000/svg"
   xmlns:sodipodi="http://sodipodi.sourceforge.net/DTD/sodipodi-0.dtd"
   xmlns:inkscape="http://www.inkscape.org/namespaces/inkscape"
   version="1.1"
   id="Layer_1"
   x="0px"
   y="0px"
   viewBox="0 0 457.60002 92.999997"
   xml:space="preserve"
   inkscape:version="0.91 r13725"
   sodipodi:docname="logo.svg"
   width="457.60001"
   height="93"><metadata
     id="metadata47"><rdf:RDF><cc:Work
         rdf:about=""><dc:format>image/svg+xml</dc:format><dc:type
           rdf:resource="http://purl.org/dc/dcmitype/StillImage" /><dc:title></dc:title></cc:Work></rdf:RDF></metadata><defs
     id="defs45" /><sodipodi:namedview
     pagecolor="#ffffff"
     bordercolor="#666666"
     borderopacity="1"
     objecttolerance="10"
     gridtolerance="10"
     guidetolerance="10"
     inkscape:pageopacity="0"
     inkscape:pageshadow="2"
     inkscape:window-width="1863"
     inkscape:window-height="1059"
     id="namedview43"
     showgrid="false"
     fit-margin-top="0"
     fit-margin-left="0"
     fit-margin-right="0"
     fit-margin-bottom="0"
     inkscape:zoom="0.28031832"
     inkscape:cx="807.61389"
     inkscape:cy="953.99601"
     inkscape:window-x="57"
     inkscape:window-y="21"
     inkscape:window-maximized="1"
     inkscape:current-layer="Layer_1" /><style
     type="text/css"
     id="style3">
	.st0{fill:#FFFFFF;stroke:#136298;stroke-miterlimit:10;}
	.st1{fill:#136298;}
	.st2{opacity:0.75;fill:#EDE678;}
	.st3{opacity:0.75;}
	.st4{fill:#EDE678;}
</style><g
     id="g5"
     transform="translate(-69.1,-355.7)"><path
       class="st0"
       d="m 190.6,388.7 3.8,0 0,-21.2 -3.8,0 0,-11.3 25.9,0 6.8,7 0,29.8 -6.8,7 -25.9,0 0,-11.3 z m 1.8,1.8 3.7,0 0,-24.8 -3.7,0 0,-7.7 23.3,0 5.7,5.8 0,28.5 -5.7,5.9 -23.3,0 0,-7.7 z m 11.2,-24.8 0,24.8 10.4,0 0,-24.8 -10.4,0 z m 1.8,1.8 0,21.2 6.8,0 0,-21.2 -6.8,0 z"
       id="path7"
       inkscape:connector-curvature="0"
       style="fill:#ffffff;stroke:#136298;stroke-miterlimit:10" /><path
       class="st0"
       d="m 226.8,388.7 3.7,0 0,-21.2 -3.7,0 0,-11.3 29.1,0 0,14.4 -10.9,0 0,-3.1 -3.6,0 0,4.2 7.3,0 0,11.4 -7.3,0 0,5.5 3.6,0 0,-3.1 10.9,0 0,14.5 -29.1,0 0,-11.3 z m 1.8,1.8 3.7,0 0,-24.8 -3.7,0 0,-7.7 25.6,0 0,10.7 -7.4,0 0,-3.1 -7.1,0 0,7.9 7.3,0 0,7.8 -7.3,0 0,9.2 7.1,0 0,-3.1 7.4,0 0,10.8 -25.6,0 0,-7.7 z"
       id="path9"
       inkscape:connector-curvature="0"
       style="fill:#ffffff;stroke:#136298;stroke-miterlimit:10" /><path
       class="st0"
       d="m 290.8,367.5 -6.8,32.5 -14.6,0 -6.8,-32.5 -3.1,0 0,-11.3 34.4,0 0,11.3 -3.1,0 z m -1.5,-1.8 -6.8,32.5 -11.7,0 -6.8,-32.5 -2.8,0 0,-7.7 14.1,0 0,7.6 -3.6,0 4.9,23.7 4.9,-23.7 -3.2,0 0,-7.6 13.7,0 0,7.6 -2.7,0 z m -15.3,1.8 c 1.6,7.4 2.5,11.7 2.7,13 l 2.7,-13 -5.4,0 z"
       id="path11"
       inkscape:connector-curvature="0"
       style="fill:#ffffff;stroke:#136298;stroke-miterlimit:10" /><path
       class="st0"
       d="m 310.3,356.2 15.1,0 6.7,7 0,10.6 -10.9,0 0,-6.3 -6.7,0 0,21.2 6.7,0 0,-9.1 10.9,0 0,13.4 -6.7,7 -15.1,0 -6.7,-7 0,-29.9 6.7,-6.9 z m 0.7,1.8 13.7,0 5.6,5.8 0,8.1 -7.4,0 0,-6.3 -10.2,0 0,24.8 10.2,0 0,-9.1 7.4,0 0,10.9 -5.6,5.9 -13.7,0 -5.6,-5.9 0,-28.5 5.6,-5.7 z"
       id="path13"
       inkscape:connector-curvature="0"
       style="fill:#ffffff;stroke:#136298;stroke-miterlimit:10" /><path
       class="st0"
       d="m 342.4,356.2 15.1,0 6.7,7 0,29.8 -6.7,7 -15.1,0 -6.7,-7 0,-29.9 6.7,-6.9 z m 0.6,1.8 13.7,0 5.6,5.8 0,28.5 -5.6,5.9 -13.7,0 -5.6,-5.9 0,-28.5 5.6,-5.8 z m 1.8,32.5 10.2,0 0,-24.8 -10.2,0 0,24.8 z m 1.8,-1.8 6.8,0 0,-21.2 -6.8,0 0,21.2 z"
       id="path15"
       inkscape:connector-curvature="0"
       style="fill:#ffffff;stroke:#136298;stroke-miterlimit:10" /><path
       class="st0"
       d="m 367.7,356.2 19.4,0 0,11.3 -4.8,0 0,21.2 3.2,0 0,-5.2 10.9,0 0,16.5 -28.7,0 0,-11.4 3.7,0 0,-21.2 -3.7,0 0,-11.2 z m 1.8,1.8 15.8,0 0,7.6 -4.8,0 0,24.8 6.8,0 0,-5.2 7.4,0 0,12.9 -25.2,0 0,-7.7 3.6,0 0,-24.8 -3.6,0 0,-7.6 z"
       id="path17"
       inkscape:connector-curvature="0"
       style="fill:#ffffff;stroke:#136298;stroke-miterlimit:10" /><path
       class="st0"
       d="m 400,356.2 19.4,0 0,11.3 -4.8,0 0,21.2 3.2,0 0,-5.2 10.9,0 0,16.5 -28.7,0 0,-11.4 3.7,0 0,-21.2 -3.7,0 0,-11.2 z m 1.8,1.8 15.8,0 0,7.6 -4.8,0 0,24.8 6.8,0 0,-5.2 7.4,0 0,12.9 -25.2,0 0,-7.7 3.6,0 0,-24.8 -3.6,0 0,-7.6 z"
       id="path19"
       inkscape:connector-curvature="0"
       style="fill:#ffffff;stroke:#136298;stroke-miterlimit:10" /><path
       class="st0"
       d="m 432.3,388.7 3.7,0 0,-21.2 -3.7,0 0,-11.3 29.1,0 0,14.4 -10.9,0 0,-3.1 -3.5,0 0,4.2 7.3,0 0,11.4 -7.3,0 0,5.5 3.6,0 0,-3.1 10.9,0 0,14.5 -29.1,0 0,-11.3 z m 1.8,1.8 3.7,0 0,-24.8 -3.7,0 0,-7.7 25.6,0 0,10.7 -7.4,0 0,-3.1 -7.1,0 0,7.9 7.3,0 0,7.8 -7.3,0 0,9.2 7.1,0 0,-3.1 7.4,0 0,10.8 -25.6,0 0,-7.7 z"
       id="path21"
       inkscape:connector-curvature="0"
       style="fill:#ffffff;stroke:#136298;stroke-miterlimit:10" /><path
       class="st0"
       d="m 471.7,356.2 15.1,0 6.7,7 0,7.4 -10.9,0 0,-3 -6.7,0 0,21.2 6.7,0 0,-5 -3.5,0 0,-11.4 14.4,0 0,20.6 -6.7,7 -15.1,0 -6.7,-7 0,-29.9 6.7,-6.9 z m 0.7,1.8 13.7,0 5.6,5.8 0,4.9 -7.4,0 0,-3 -10.2,0 0,24.8 10.2,0 0,-8.7 -3.5,0 0,-7.7 10.8,0 0,18.3 -5.6,5.9 -13.7,0 -5.6,-5.9 0,-28.5 5.7,-5.9 z"
       id="path23"
       inkscape:connector-curvature="0"
       style="fill:#ffffff;stroke:#136298;stroke-miterlimit:10" /><path
       class="st0"
       d="m 497.1,388.7 3.7,0 0,-21.2 -3.7,0 0,-11.3 29.1,0 0,14.4 -10.9,0 0,-3.1 -3.6,0 0,4.2 7.3,0 0,11.4 -7.3,0 0,5.5 3.6,0 0,-3.1 10.9,0 0,14.5 -29.1,0 0,-11.3 z m 1.8,1.8 3.7,0 0,-24.8 -3.7,0 0,-7.7 25.6,0 0,10.7 -7.4,0 0,-3.1 -7.1,0 0,7.9 7.3,0 0,7.8 -7.3,0 0,9.2 7.1,0 0,-3.1 7.4,0 0,10.8 -25.6,0 0,-7.7 z"
       id="path25"
       inkscape:connector-curvature="0"
       style="fill:#ffffff;stroke:#136298;stroke-miterlimit:10" /><path
       class="st1"
       d="m 69.1,424.4 8,0 0,-44.4 -8,0 0,-23.8 54.4,0 14.2,14.6 0,62.7 -14.2,14.8 -54.4,0 0,-23.9 z m 31.1,-44.4 0,44.4 14.2,0 0,-44.4 -14.2,0 z"
       id="path27"
       inkscape:connector-curvature="0"
       style="fill:#136298" /><polygon
       class="st2"
       points="148,380 148,424.4 162.1,424.4 162.1,405.3 184.9,405.3 184.9,433.5 170.9,448.3 139.2,448.3 125.2,433.5 125.2,370.7 139.2,356.2 170.9,356.2 184.9,370.8 184.9,393.1 162.1,393.1 162.1,380 "
       id="polygon29"
       style="opacity:0.75;fill:#ede678" /><g
       class="st3"
       id="g31"
       style="opacity:0.75"><path
         class="st4"
         d="m 198.6,404.4 15.8,0 6.5,6.4 0,8.9 -8.5,0 0,-6.9 -11.7,0 0,27.3 11.7,0 0,-10 8.5,0 0,12.1 -6.5,6.5 -15.8,0 -6.5,-6.5 0,-31.4 6.5,-6.4 z"
         id="path33"
         inkscape:connector-curvature="0"
         style="fill:#ede678" /><path
         class="st4"
         d="m 231,404.4 15.8,0 6.5,6.4 0,31.4 -6.5,6.5 -15.8,0 -6.5,-6.5 0,-31.4 6.5,-6.4 z m 2,35.8 11.7,0 0,-27.3 -11.7,0 0,27.3 z"
         id="path35"
         inkscape:connector-curvature="0"
         style="fill:#ede678" /><path
         class="st4"
         d="m 265.3,416.3 0,32.4 -8.4,0 0,-44.3 13.8,0 5.3,20.2 5.3,-20.2 13.8,0 0,44.3 -8.5,0 0,-32.4 -8.6,32.4 -4.2,0 -8.5,-32.4 z"
         id="path37"
         inkscape:connector-curvature="0"
         style="fill:#ede678" /><path
         class="st4"
         d="m 320.9,404.4 6.5,6.4 0,10.3 -3.8,3.8 3.8,3.8 0,13.4 -6.5,6.5 -22.2,0 0,-44.3 22.2,0 z m -13.8,17.5 11.8,0 0,-9.1 -11.8,0 0,9.1 z m 11.8,8 -11.8,0 0,10.3 11.8,0 0,-10.3 z"
         id="path39"
         inkscape:connector-curvature="0"
         style="fill:#ede678" /><path
         class="st4"
         d="m 337.5,404.4 15.8,0 6.5,6.4 0,31.4 -6.5,6.5 -15.8,0 -6.5,-6.5 0,-31.4 6.5,-6.4 z m 2,35.8 11.7,0 0,-27.3 -11.7,0 0,27.3 z"
         id="path41"
         inkscape:connector-curvature="0"
         style="fill:#ede678" /></g></g></svg>